<svg id="Layer_1" data-name="Layer 1" xmlns="http://www.w3.org/2000/svg" xmlns:xlink="http://www.w3.org/1999/xlink" viewBox="0 0 263.4 228.01"><defs><style>.cls-1,.cls-4{fill:none;}.cls-2{fill:#13110c;}.cls-3{fill:#1d1d1b;}.cls-4{stroke:#1d1d1b;stroke-width:0.16px;}.cls-5{clip-path:url(#clip-path);}.cls-6{fill:#fff;}</style><clipPath id="clip-path" transform="translate(-742.54 -285.94)"><rect class="cls-1" x="816.5" y="383.12" width="8.16" height="9.92"/></clipPath></defs><path class="cls-2" d="M810.51,449.67c7.6,0,12.76,5.89,12.76,14.23,0,8.83-5.4,19.87-13.74,29.44-10.31,11.53-28,20.61-39,20.61-9.81,0-15.7-5.64-15.7-15.21,0-5.89,4.42-16.93,10.55-26l40.23-59.61c2.95-4.42,3.48-5.54,3.48-7a19.92,19.92,0,0,0-.51-3.76l14.45.22a13.83,13.83,0,0,1,.25,2.94c0,2.21-1.48,5.4-3.93,9.08L787.69,461.2c7.85-7.11,16.44-11.53,22.82-11.53m-45.88,55.94a6.48,6.48,0,0,0,6.63,5.89c7.85,0,17.42-8.1,27.72-23.8,7.36-11,12-22.08,12-28,0-4.17-2-6.38-5.64-6.38-5.64,0-15.46,7.61-24.54,18.89-8.83,11-16.19,26-16.19,32.39Z" transform="translate(-742.54 -285.94)"/><path class="cls-2" d="M928.28,473.49c-4,0-9.38,2.77-14.3,7.22l19.84-29.21c1.54-2.31,2.46-4.31,2.46-5.69a8.54,8.54,0,0,0-.16-1.85h-9.07a14.39,14.39,0,0,1,.15,2.46c0,.92-.15,1.38-2,4.15L900,487.94a48.75,48.75,0,0,0-3.63,6.36c-.25.28-.53.57-.83.87-.46.61-1.69,1.69-3.54,3.85-5.84,6.45-9.53,9.22-12.3,9.22-2,0-2.92-1.23-2.92-3.69,0-2.15.92-4.3,3.84-8.61,2.31-3.54,4.62-6.92,6.77-9.69,3.38-4.46,5.23-6.77,10.3-12.45-1.84.3-2.92.61-3.84.76a20.33,20.33,0,0,1-6.16,1.08c-2.92,0-4.3-.31-6.76-2.46-.58,1.08-1.07,2-1.53,2.77-1.38,2.42-7.77,11.82-10.3,15.05-1.29,1.64-4.65,5.79-8.06,9.49s-6.69,6.76-7.44,7.44c-1.85,1.54-3.85,2.62-5.39,2.62-1.38,0-2.3-1.08-2.3-2.92,0-1.54,1.23-4.62,2.61-6.77l18.15-26.76h-8.92l-3.23,4.62c-.16-3.39-2.31-5.39-6.46-5.39-5.84,0-14.3,4.31-22.3,11.38-7.53,6.77-11.69,13.69-11.69,20,0,5.85,2.77,9.08,7.54,9.08a15,15,0,0,0,9.07-3.69,99.53,99.53,0,0,0,8.92-8.61c-.92,3.38-1.38,4.61-1.38,6,0,4,2.46,6.31,6,6.31,4.16,0,8.15-2.62,15.69-10.61.28-.19,5.42-6,10-11.54,3-3.69,5.73-7.3,6.77-8.63l2.77-3.52c2,1.39,2.92,1.85,4.46,1.85a25.34,25.34,0,0,0,4.77-.92c-11.23,8.15-20.92,20.76-20.92,26.76,0,3.84,2.62,6.15,6.77,6.15,3.23,0,6-1.23,10.15-4.92a58.82,58.82,0,0,0,4.46-4.47l3.84-4.15,2.13-2.42a20.87,20.87,0,0,0-1.67,6.88c0,6,3.69,9.54,9.84,9.54,6.93,0,18-5.69,24.46-12.92,5.22-6,8.61-12.92,8.61-18.45,0-5.23-3.23-8.92-8-8.92m-84.23,20.3a70.51,70.51,0,0,1-8,9.53c-4,4.31-7.07,6.15-10.15,6.15a4.13,4.13,0,0,1-4.15-4.15c0-2.15,1.23-4.92,2.92-7.54.77-1.38,2-3.07,3.23-4.92a55,55,0,0,1,3.54-4.61c6.31-8,13.69-13.53,17.69-13.53,2,0,3.22,1.69,3.22,4.46a6.51,6.51,0,0,1-.76,3.07l-3.7,5.69Zm77,3.53c-6.46,9.85-12.45,14.92-17.37,14.92a4.06,4.06,0,0,1-4.16-3.69v-.62c0-4,4.62-13.38,10.15-20.3,5.69-7.07,11.84-11.84,15.38-11.84,2.31,0,3.54,1.39,3.54,4,0,3.69-2.92,10.61-7.54,17.53m76.87,1.7c-5.85,6.45-9.54,9.22-12.3,9.22-2,0-2.93-1.23-2.93-3.69,0-2.15.93-4.3,3.85-8.61,2.3-3.54,4.61-6.92,6.76-9.69,3.39-4.46,5.23-6.77,10.31-12.45-1.85.3-2.92.61-3.85.76a20.24,20.24,0,0,1-6.15,1.08c-2.92,0-4.3-.31-6.76-2.46-.73,1.36-1.32,2.42-1.89,3.39-.71,1.21-2.84,4.25-4.61,6.75-.62.88-2.75,4.37-5.27,7.72-2.72,3.61-5.86,7.09-6.82,8.13-6.76,7.69-12.61,11.38-18,11.38-4,0-6.15-1.85-6.15-5.38,0-2.62.92-5.23,3.84-10.15,15.84-3.54,28-11.38,28-17.84,0-2.62-1.84-3.85-5.69-3.85-7.07,0-17.53,5.23-25.06,12.92-6.16,6.15-9.54,12.77-9.54,18,0,6.31,3.38,9.54,10.46,9.54a22.74,22.74,0,0,0,8.61-1.69,40.14,40.14,0,0,0,10.76-8s7.44-8.59,9.85-11.68c1.33-1.69,4.09-5.52,6.37-8.57a54.64,54.64,0,0,1,3.6-4.36c2,1.39,2.92,1.85,4.46,1.85a25.27,25.27,0,0,0,4.76-.92c-11.22,8.15-20.91,20.76-20.91,26.76,0,3.84,2.62,6.15,6.77,6.15,3.23,0,6-1.23,10.15-4.92.94-.88,2.86-2.65,4.61-4.49,1.94-2,3.69-4.13,3.69-4.13s7.61-8.84,7.07-9.38-6.15,6.46-8,8.62M955.5,484.41c7.53-7.54,10.45-9.85,13.07-9.85a2.33,2.33,0,0,1,2.61,2.16c0,6.61-10.91,14.76-22.6,16.76a45.33,45.33,0,0,1,6.92-9.07" transform="translate(-742.54 -285.94)"/><path class="cls-2" d="M774.84,430l23.71-32c1.89-2.49,3.67-4.21,5.14-4.73a10,10,0,0,1,2-.52l3.37,9.65a14.51,14.51,0,0,0-2.56.58c-1,.34-1.53.85-3.79,3.84l-30.38,40.71c-4.63,6.2-11,11.71-14.89,13.08-6.38,2.23-11.51-.38-13.8-6.93-2.57-7.36-.63-21.25,4.67-30.8,4.43-7.79,10.54-14,16.43-16,5.56-1.94,10.68.13,12.45,5.2,1.49,4.25.54,11-2.37,17.9m-23.59,25.48c4.25-1.48,12.52-9.87,17.83-18.34,5.41-8.67,8.19-17,6.88-20.75-.86-2.45-2.79-3.25-5.57-2.28-3.92,1.37-10.2,7.05-15.85,14.53-8.07,10.52-11.24,18.79-9.41,24a4.58,4.58,0,0,0,5.47,3.05Z" transform="translate(-742.54 -285.94)"/><polygon class="cls-3" points="65.54 106.17 68.15 114.2 80.34 114.46 150.17 0.05 65.54 106.17"/><polygon class="cls-4" points="65.54 106.17 68.15 114.2 80.34 114.46 150.17 0.05 65.54 106.17"/><g class="cls-5"><g class="cls-5"><path class="cls-6" d="M824.67,384.14a7.83,7.83,0,0,1-.7,2.57,11.87,11.87,0,0,1-1.67,2.65c-2,2.7-3.14,3.68-4.41,3.68a1.21,1.21,0,0,1-1.39-1.31c0-.12,0-.29,0-.45a12.44,12.44,0,0,1,2.49-4.61c1.68-2.16,3.39-3.55,4.49-3.55.74,0,1.15.37,1.15,1" transform="translate(-742.54 -285.94)"/></g></g><path class="cls-2" d="M857.83,447.19c1.15-1.76,1.92-3,2.22-3.45a35.18,35.18,0,0,1,5.68-6.82,26.29,26.29,0,0,1,6.9-4.45c.69-.15,1.15-.31,1.23-.31a1.07,1.07,0,0,1,.84-.38.16.16,0,0,1,.15.15c0,.31-.3.46-.92.62a5,5,0,0,0-2.22,1.61c-1.3,1.3-3.07,4.06-5.83,8.82-1.15,2-1.84,3.14-2.15,3.67a34,34,0,0,1-2.14,3.53c-1.15,1.76-1.92,2.91-2.38,3.61a30,30,0,0,1-6.52,6.9,27.94,27.94,0,0,1-16.1,5.13c-5.06,0-8.51-1.91-8.51-4.67a2.58,2.58,0,0,1,2.45-2.84,2.17,2.17,0,0,1,2.3,2.07,3.36,3.36,0,0,1-.07.38,1.94,1.94,0,0,0-.54.16,1.26,1.26,0,0,0-.84,1.22c0,1.69,2.76,3.07,5.75,3.07a19.83,19.83,0,0,0,7.21-1.69c2.83-1.3,6.21-4.6,8.51-8.43l2.68-4.3Zm-14.41,4.37c-4.37,0-7.29-2.6-7.29-6.52,0-9.66,13.19-19.09,26.84-19.09a51.61,51.61,0,0,1,11.35,1.46c2,.38,3.45.69,4.14.84a32.83,32.83,0,0,0,5.06.46c1.84,0,3.6-.38,4.21-.92a4.15,4.15,0,0,1,.62-.3c.07,0,.07,0,.15.07,0,.23-.77.77-1.76,1.15a24.49,24.49,0,0,1-8.28,1.38c-2.69,0-4.3-.3-9.28-1.3a45.16,45.16,0,0,0-10.2-1.3c-10.12,0-19.24,7.28-19.24,15.33a6.36,6.36,0,0,0,6.67,6.67,4.58,4.58,0,0,0,1.45-.23,13.71,13.71,0,0,0,4.68-1.61,2.53,2.53,0,0,1,1.23-.84c.15,0,.15.07.15.15,0,.23-.15.46-1.23,1.07l-2,1.39a17.79,17.79,0,0,1-7.28,2.14" transform="translate(-742.54 -285.94)"/><path class="cls-2" d="M879.41,433.93a4.44,4.44,0,0,0,1-2.3,2.89,2.89,0,0,0-.3-.77h4.83c.07.46.15.69.15.84a5.29,5.29,0,0,1-1.15,2.53l-11.35,16.64c4.6-4.06,7.28-5.67,9.82-5.67,1.84,0,2.83,1,2.83,2.91,0,1.77-.46,2.61-4.29,7.52-2.61,3.37-4,5.59-4,6.67,0,.76.69,1.22,1.53,1.22,1.15,0,2.61-.92,5-3.06a32,32,0,0,0,5.06-5.6c.23-.54.54-.84.77-.84a.19.19,0,0,1,.22.22,3,3,0,0,1-.53,1l-1.3,1.69c-.54.69-2.23,2.38-3.91,4.06-3.3,3.3-5.53,4.45-8.13,4.45-1.84,0-2.84-1.07-2.84-3.07,0-1.68,1.07-3.52,4.37-7.59,2.76-3.52,3.91-5.52,3.91-6.82,0-.85-.23-1.15-1-1.15a5.43,5.43,0,0,0-2.23.76,28,28,0,0,0-8.2,7.67l-6.67,10h-4.68Z" transform="translate(-742.54 -285.94)"/><path class="cls-2" d="M889.88,461.38c0,1.76,1.07,2.68,3.07,2.68,2.68,0,5.59-1.84,9-5.67.92-1,1.53-1.61,1.76-1.92a6,6,0,0,0,1.3-1.69c.31-.61.54-.84.77-.84s.23.08.23.15a1.83,1.83,0,0,1-.46,1l-1.23,1.69-1.84,1.91-1.91,2.15a20.26,20.26,0,0,1-5.37,4,11.39,11.39,0,0,1-4.29.84c-3.53,0-5.22-1.61-5.22-4.75,0-2.61,1.69-5.91,4.76-9,3.75-3.83,9-6.44,12.49-6.44,1.92,0,2.84.62,2.84,1.92,0,3.22-6,7.13-14,8.9-1.46,2.45-1.92,3.75-1.92,5.06m2.22-5.83c5.83-1,11.27-5.06,11.27-8.36a1.16,1.16,0,0,0-1.3-1.07c-1.3,0-2.76,1.15-6.52,4.91a22.89,22.89,0,0,0-3.45,4.52" transform="translate(-742.54 -285.94)"/></svg>